<mxfile host="app.diagrams.net" modified="2022-02-10T09:30:08.467Z" agent="5.0 (Windows NT 10.0; Win64; x64) AppleWebKit/537.36 (KHTML, like Gecko) Chrome/97.0.4692.71 Safari/537.36" etag="6OR5x3LnVISP4HNeTZ9d" version="15.9.6" type="github">
  <diagram id="C5RBs43oDa-KdzZeNtuy" name="Page-1">
    <mxGraphModel dx="865" dy="456" grid="1" gridSize="10" guides="1" tooltips="1" connect="1" arrows="1" fold="1" page="1" pageScale="1" pageWidth="827" pageHeight="1169" math="0" shadow="0">
      <root>
        <mxCell id="WIyWlLk6GJQsqaUBKTNV-0" />
        <mxCell id="WIyWlLk6GJQsqaUBKTNV-1" parent="WIyWlLk6GJQsqaUBKTNV-0" />
        <mxCell id="njuP0xFI8WVh34JiceHF-87" value="" style="whiteSpace=wrap;html=1;fillColor=#dae8fc;strokeColor=#6c8ebf;" vertex="1" parent="WIyWlLk6GJQsqaUBKTNV-1">
          <mxGeometry y="1230" width="774" height="570" as="geometry" />
        </mxCell>
        <mxCell id="njuP0xFI8WVh34JiceHF-4" value="" style="edgeStyle=orthogonalEdgeStyle;rounded=0;orthogonalLoop=1;jettySize=auto;html=1;" edge="1" parent="WIyWlLk6GJQsqaUBKTNV-1">
          <mxGeometry relative="1" as="geometry">
            <mxPoint x="220.0000000000001" y="170" as="sourcePoint" />
            <mxPoint x="220.0000000000001" y="210" as="targetPoint" />
          </mxGeometry>
        </mxCell>
        <mxCell id="njuP0xFI8WVh34JiceHF-6" value="" style="edgeStyle=orthogonalEdgeStyle;rounded=0;orthogonalLoop=1;jettySize=auto;html=1;" edge="1" parent="WIyWlLk6GJQsqaUBKTNV-1">
          <mxGeometry relative="1" as="geometry">
            <mxPoint x="220.0000000000001" y="290" as="sourcePoint" />
            <mxPoint x="220.0000000000001" y="320" as="targetPoint" />
          </mxGeometry>
        </mxCell>
        <mxCell id="njuP0xFI8WVh34JiceHF-18" value="否" style="edgeStyle=orthogonalEdgeStyle;rounded=0;orthogonalLoop=1;jettySize=auto;html=1;" edge="1" parent="WIyWlLk6GJQsqaUBKTNV-1" target="njuP0xFI8WVh34JiceHF-16">
          <mxGeometry relative="1" as="geometry">
            <mxPoint x="290.0000000000001" y="352.5000000000001" as="sourcePoint" />
          </mxGeometry>
        </mxCell>
        <mxCell id="njuP0xFI8WVh34JiceHF-19" value="" style="edgeStyle=orthogonalEdgeStyle;rounded=0;orthogonalLoop=1;jettySize=auto;html=1;" edge="1" parent="WIyWlLk6GJQsqaUBKTNV-1">
          <mxGeometry relative="1" as="geometry">
            <mxPoint x="220.0000000000001" y="280" as="sourcePoint" />
            <mxPoint x="220.0000000000001" y="320" as="targetPoint" />
          </mxGeometry>
        </mxCell>
        <mxCell id="njuP0xFI8WVh34JiceHF-16" value="抛出异常" style="strokeWidth=2;html=1;shape=mxgraph.flowchart.terminator;whiteSpace=wrap;" vertex="1" parent="WIyWlLk6GJQsqaUBKTNV-1">
          <mxGeometry x="350" y="332.5" width="100" height="40" as="geometry" />
        </mxCell>
        <mxCell id="njuP0xFI8WVh34JiceHF-17" value="&lt;span&gt;重量拆分&lt;/span&gt;" style="strokeWidth=2;html=1;shape=mxgraph.flowchart.start_1;whiteSpace=wrap;" vertex="1" parent="WIyWlLk6GJQsqaUBKTNV-1">
          <mxGeometry x="170" y="130" width="100" height="40" as="geometry" />
        </mxCell>
        <mxCell id="njuP0xFI8WVh34JiceHF-55" style="edgeStyle=orthogonalEdgeStyle;rounded=0;orthogonalLoop=1;jettySize=auto;html=1;entryX=0.5;entryY=0;entryDx=0;entryDy=0;" edge="1" parent="WIyWlLk6GJQsqaUBKTNV-1" source="njuP0xFI8WVh34JiceHF-25" target="njuP0xFI8WVh34JiceHF-49">
          <mxGeometry relative="1" as="geometry" />
        </mxCell>
        <mxCell id="njuP0xFI8WVh34JiceHF-25" value="重量上限" style="shape=parallelogram;html=1;strokeWidth=2;perimeter=parallelogramPerimeter;whiteSpace=wrap;rounded=1;arcSize=12;size=0.23;" vertex="1" parent="WIyWlLk6GJQsqaUBKTNV-1">
          <mxGeometry x="157.5" y="490" width="120" height="30" as="geometry" />
        </mxCell>
        <mxCell id="njuP0xFI8WVh34JiceHF-33" value="" style="edgeStyle=orthogonalEdgeStyle;rounded=0;orthogonalLoop=1;jettySize=auto;html=1;" edge="1" parent="WIyWlLk6GJQsqaUBKTNV-1" source="njuP0xFI8WVh34JiceHF-28" target="njuP0xFI8WVh34JiceHF-31">
          <mxGeometry relative="1" as="geometry" />
        </mxCell>
        <mxCell id="njuP0xFI8WVh34JiceHF-28" value="&lt;span&gt;判断订单状态&lt;/span&gt;&lt;br&gt;&lt;span&gt;（是否允许操作）&lt;/span&gt;" style="strokeWidth=2;html=1;shape=mxgraph.flowchart.decision;whiteSpace=wrap;" vertex="1" parent="WIyWlLk6GJQsqaUBKTNV-1">
          <mxGeometry x="152.5" y="322.5" width="135" height="60" as="geometry" />
        </mxCell>
        <mxCell id="njuP0xFI8WVh34JiceHF-34" value="" style="edgeStyle=orthogonalEdgeStyle;rounded=0;orthogonalLoop=1;jettySize=auto;html=1;" edge="1" parent="WIyWlLk6GJQsqaUBKTNV-1" source="njuP0xFI8WVh34JiceHF-31" target="njuP0xFI8WVh34JiceHF-25">
          <mxGeometry relative="1" as="geometry" />
        </mxCell>
        <mxCell id="njuP0xFI8WVh34JiceHF-40" value="" style="edgeStyle=orthogonalEdgeStyle;rounded=0;orthogonalLoop=1;jettySize=auto;html=1;" edge="1" parent="WIyWlLk6GJQsqaUBKTNV-1" source="njuP0xFI8WVh34JiceHF-31" target="njuP0xFI8WVh34JiceHF-39">
          <mxGeometry relative="1" as="geometry" />
        </mxCell>
        <mxCell id="njuP0xFI8WVh34JiceHF-31" value="重量上限=0？" style="strokeWidth=2;html=1;shape=mxgraph.flowchart.decision;whiteSpace=wrap;" vertex="1" parent="WIyWlLk6GJQsqaUBKTNV-1">
          <mxGeometry x="150" y="405" width="135" height="60" as="geometry" />
        </mxCell>
        <mxCell id="njuP0xFI8WVh34JiceHF-37" value="&lt;span&gt;获取配置信息&lt;br&gt;&lt;/span&gt;获取订单 sales_trade 信息并加锁&lt;span&gt;&lt;br&gt;&lt;/span&gt;" style="rounded=1;whiteSpace=wrap;html=1;absoluteArcSize=1;arcSize=14;strokeWidth=2;" vertex="1" parent="WIyWlLk6GJQsqaUBKTNV-1">
          <mxGeometry x="160" y="210" width="120" height="70" as="geometry" />
        </mxCell>
        <mxCell id="njuP0xFI8WVh34JiceHF-44" style="edgeStyle=orthogonalEdgeStyle;rounded=0;orthogonalLoop=1;jettySize=auto;html=1;" edge="1" parent="WIyWlLk6GJQsqaUBKTNV-1" source="njuP0xFI8WVh34JiceHF-39" target="njuP0xFI8WVh34JiceHF-25">
          <mxGeometry relative="1" as="geometry">
            <Array as="points">
              <mxPoint x="400" y="510" />
            </Array>
          </mxGeometry>
        </mxCell>
        <mxCell id="njuP0xFI8WVh34JiceHF-48" value="无法获取" style="edgeStyle=orthogonalEdgeStyle;rounded=0;orthogonalLoop=1;jettySize=auto;html=1;" edge="1" parent="WIyWlLk6GJQsqaUBKTNV-1" source="njuP0xFI8WVh34JiceHF-39" target="njuP0xFI8WVh34JiceHF-45">
          <mxGeometry relative="1" as="geometry" />
        </mxCell>
        <mxCell id="njuP0xFI8WVh34JiceHF-39" value="计算最优重量" style="rounded=1;whiteSpace=wrap;html=1;absoluteArcSize=1;arcSize=14;strokeWidth=2;" vertex="1" parent="WIyWlLk6GJQsqaUBKTNV-1">
          <mxGeometry x="340" y="417.5" width="100" height="35" as="geometry" />
        </mxCell>
        <mxCell id="njuP0xFI8WVh34JiceHF-45" value="抛出异常" style="strokeWidth=2;html=1;shape=mxgraph.flowchart.terminator;whiteSpace=wrap;" vertex="1" parent="WIyWlLk6GJQsqaUBKTNV-1">
          <mxGeometry x="520" y="415" width="100" height="40" as="geometry" />
        </mxCell>
        <mxCell id="njuP0xFI8WVh34JiceHF-56" value="" style="edgeStyle=orthogonalEdgeStyle;rounded=0;orthogonalLoop=1;jettySize=auto;html=1;" edge="1" parent="WIyWlLk6GJQsqaUBKTNV-1" source="njuP0xFI8WVh34JiceHF-49" target="njuP0xFI8WVh34JiceHF-51">
          <mxGeometry relative="1" as="geometry" />
        </mxCell>
        <mxCell id="njuP0xFI8WVh34JiceHF-49" value="查询STO货品总重量（actual_num &amp;gt; 0）" style="rounded=1;whiteSpace=wrap;html=1;absoluteArcSize=1;arcSize=14;strokeWidth=2;" vertex="1" parent="WIyWlLk6GJQsqaUBKTNV-1">
          <mxGeometry x="157.5" y="550" width="120" height="40" as="geometry" />
        </mxCell>
        <mxCell id="njuP0xFI8WVh34JiceHF-58" value="是" style="edgeStyle=orthogonalEdgeStyle;rounded=0;orthogonalLoop=1;jettySize=auto;html=1;" edge="1" parent="WIyWlLk6GJQsqaUBKTNV-1" source="njuP0xFI8WVh34JiceHF-51" target="njuP0xFI8WVh34JiceHF-57">
          <mxGeometry relative="1" as="geometry" />
        </mxCell>
        <mxCell id="njuP0xFI8WVh34JiceHF-60" value="否" style="edgeStyle=orthogonalEdgeStyle;rounded=0;orthogonalLoop=1;jettySize=auto;html=1;" edge="1" parent="WIyWlLk6GJQsqaUBKTNV-1" source="njuP0xFI8WVh34JiceHF-51" target="njuP0xFI8WVh34JiceHF-59">
          <mxGeometry relative="1" as="geometry" />
        </mxCell>
        <mxCell id="njuP0xFI8WVh34JiceHF-51" value="总重 &amp;lt; 重量上限&amp;nbsp;&lt;br&gt;总重 / 重量上限 &amp;gt; 50" style="strokeWidth=2;html=1;shape=mxgraph.flowchart.decision;whiteSpace=wrap;" vertex="1" parent="WIyWlLk6GJQsqaUBKTNV-1">
          <mxGeometry x="128.75" y="620" width="177.5" height="60" as="geometry" />
        </mxCell>
        <mxCell id="njuP0xFI8WVh34JiceHF-57" value="抛出异常" style="strokeWidth=2;html=1;shape=mxgraph.flowchart.terminator;whiteSpace=wrap;" vertex="1" parent="WIyWlLk6GJQsqaUBKTNV-1">
          <mxGeometry x="364" y="630" width="100" height="40" as="geometry" />
        </mxCell>
        <mxCell id="njuP0xFI8WVh34JiceHF-62" value="存在" style="edgeStyle=orthogonalEdgeStyle;rounded=0;orthogonalLoop=1;jettySize=auto;html=1;" edge="1" parent="WIyWlLk6GJQsqaUBKTNV-1" source="njuP0xFI8WVh34JiceHF-59" target="njuP0xFI8WVh34JiceHF-61">
          <mxGeometry relative="1" as="geometry" />
        </mxCell>
        <mxCell id="njuP0xFI8WVh34JiceHF-64" value="否" style="edgeStyle=orthogonalEdgeStyle;rounded=0;orthogonalLoop=1;jettySize=auto;html=1;" edge="1" parent="WIyWlLk6GJQsqaUBKTNV-1" source="njuP0xFI8WVh34JiceHF-59" target="njuP0xFI8WVh34JiceHF-63">
          <mxGeometry relative="1" as="geometry" />
        </mxCell>
        <mxCell id="njuP0xFI8WVh34JiceHF-59" value="查询STO重量为0的订单" style="strokeWidth=2;html=1;shape=mxgraph.flowchart.decision;whiteSpace=wrap;" vertex="1" parent="WIyWlLk6GJQsqaUBKTNV-1">
          <mxGeometry x="128.75" y="710" width="177.5" height="60" as="geometry" />
        </mxCell>
        <mxCell id="njuP0xFI8WVh34JiceHF-61" value="抛出异常" style="strokeWidth=2;html=1;shape=mxgraph.flowchart.terminator;whiteSpace=wrap;" vertex="1" parent="WIyWlLk6GJQsqaUBKTNV-1">
          <mxGeometry x="380" y="720" width="100" height="40" as="geometry" />
        </mxCell>
        <mxCell id="njuP0xFI8WVh34JiceHF-66" value="开启配置并&lt;br&gt;订单只包含赠品&lt;br&gt;或订单只包含非单发件" style="edgeStyle=orthogonalEdgeStyle;rounded=0;orthogonalLoop=1;jettySize=auto;html=1;" edge="1" parent="WIyWlLk6GJQsqaUBKTNV-1" source="njuP0xFI8WVh34JiceHF-63" target="njuP0xFI8WVh34JiceHF-65">
          <mxGeometry relative="1" as="geometry" />
        </mxCell>
        <mxCell id="njuP0xFI8WVh34JiceHF-68" value="" style="edgeStyle=orthogonalEdgeStyle;rounded=0;orthogonalLoop=1;jettySize=auto;html=1;" edge="1" parent="WIyWlLk6GJQsqaUBKTNV-1" source="njuP0xFI8WVh34JiceHF-63" target="njuP0xFI8WVh34JiceHF-67">
          <mxGeometry relative="1" as="geometry" />
        </mxCell>
        <mxCell id="njuP0xFI8WVh34JiceHF-63" value="检查配置&lt;br&gt;拆分检查订单&lt;br&gt;拆分检查单发件" style="strokeWidth=2;html=1;shape=mxgraph.flowchart.decision;whiteSpace=wrap;" vertex="1" parent="WIyWlLk6GJQsqaUBKTNV-1">
          <mxGeometry x="131.88" y="810" width="171.25" height="80" as="geometry" />
        </mxCell>
        <mxCell id="njuP0xFI8WVh34JiceHF-65" value="抛出异常" style="strokeWidth=2;html=1;shape=mxgraph.flowchart.terminator;whiteSpace=wrap;" vertex="1" parent="WIyWlLk6GJQsqaUBKTNV-1">
          <mxGeometry x="490" y="820" width="100" height="40" as="geometry" />
        </mxCell>
        <mxCell id="njuP0xFI8WVh34JiceHF-70" value="" style="edgeStyle=orthogonalEdgeStyle;rounded=0;orthogonalLoop=1;jettySize=auto;html=1;" edge="1" parent="WIyWlLk6GJQsqaUBKTNV-1" source="njuP0xFI8WVh34JiceHF-67" target="njuP0xFI8WVh34JiceHF-69">
          <mxGeometry relative="1" as="geometry" />
        </mxCell>
        <mxCell id="njuP0xFI8WVh34JiceHF-67" value="查询 STO 单品重量和组合装重量&lt;br&gt;（总重/数量）" style="rounded=1;whiteSpace=wrap;html=1;absoluteArcSize=1;arcSize=14;strokeWidth=2;" vertex="1" parent="WIyWlLk6GJQsqaUBKTNV-1">
          <mxGeometry x="96.25" y="920" width="242.5" height="40" as="geometry" />
        </mxCell>
        <mxCell id="njuP0xFI8WVh34JiceHF-72" value="" style="edgeStyle=orthogonalEdgeStyle;rounded=0;orthogonalLoop=1;jettySize=auto;html=1;" edge="1" parent="WIyWlLk6GJQsqaUBKTNV-1" source="njuP0xFI8WVh34JiceHF-69" target="njuP0xFI8WVh34JiceHF-71">
          <mxGeometry relative="1" as="geometry" />
        </mxCell>
        <mxCell id="njuP0xFI8WVh34JiceHF-73" value="是" style="edgeLabel;html=1;align=center;verticalAlign=middle;resizable=0;points=[];" vertex="1" connectable="0" parent="njuP0xFI8WVh34JiceHF-72">
          <mxGeometry x="-0.1875" y="-1" relative="1" as="geometry">
            <mxPoint as="offset" />
          </mxGeometry>
        </mxCell>
        <mxCell id="njuP0xFI8WVh34JiceHF-81" value="否&lt;br&gt;" style="edgeStyle=orthogonalEdgeStyle;rounded=0;orthogonalLoop=1;jettySize=auto;html=1;entryX=0.5;entryY=0;entryDx=0;entryDy=0;entryPerimeter=0;" edge="1" parent="WIyWlLk6GJQsqaUBKTNV-1" source="njuP0xFI8WVh34JiceHF-69" target="njuP0xFI8WVh34JiceHF-75">
          <mxGeometry relative="1" as="geometry" />
        </mxCell>
        <mxCell id="njuP0xFI8WVh34JiceHF-69" value="所有查询的单品/组合装&lt;br&gt;重量都超过重量上限" style="strokeWidth=2;html=1;shape=mxgraph.flowchart.decision;whiteSpace=wrap;" vertex="1" parent="WIyWlLk6GJQsqaUBKTNV-1">
          <mxGeometry x="120.93" y="1000" width="193.13" height="60" as="geometry" />
        </mxCell>
        <mxCell id="njuP0xFI8WVh34JiceHF-71" value="抛出异常" style="strokeWidth=2;html=1;shape=mxgraph.flowchart.terminator;whiteSpace=wrap;" vertex="1" parent="WIyWlLk6GJQsqaUBKTNV-1">
          <mxGeometry x="400" y="1010" width="100" height="40" as="geometry" />
        </mxCell>
        <mxCell id="njuP0xFI8WVh34JiceHF-78" value="" style="edgeStyle=orthogonalEdgeStyle;rounded=0;orthogonalLoop=1;jettySize=auto;html=1;" edge="1" parent="WIyWlLk6GJQsqaUBKTNV-1" source="njuP0xFI8WVh34JiceHF-75" target="njuP0xFI8WVh34JiceHF-77">
          <mxGeometry relative="1" as="geometry" />
        </mxCell>
        <mxCell id="njuP0xFI8WVh34JiceHF-79" value="是" style="edgeLabel;html=1;align=center;verticalAlign=middle;resizable=0;points=[];" vertex="1" connectable="0" parent="njuP0xFI8WVh34JiceHF-78">
          <mxGeometry x="-0.2436" y="1" relative="1" as="geometry">
            <mxPoint as="offset" />
          </mxGeometry>
        </mxCell>
        <mxCell id="njuP0xFI8WVh34JiceHF-92" style="edgeStyle=orthogonalEdgeStyle;rounded=0;orthogonalLoop=1;jettySize=auto;html=1;entryX=0.5;entryY=0;entryDx=0;entryDy=0;fontSize=16;fontColor=#EA6B66;" edge="1" parent="WIyWlLk6GJQsqaUBKTNV-1" source="njuP0xFI8WVh34JiceHF-75" target="njuP0xFI8WVh34JiceHF-82">
          <mxGeometry relative="1" as="geometry" />
        </mxCell>
        <mxCell id="njuP0xFI8WVh34JiceHF-75" value="总重&amp;nbsp; &amp;lt;= 重量上限" style="strokeWidth=2;html=1;shape=mxgraph.flowchart.decision;whiteSpace=wrap;" vertex="1" parent="WIyWlLk6GJQsqaUBKTNV-1">
          <mxGeometry x="144.69" y="1100" width="145.62" height="40" as="geometry" />
        </mxCell>
        <mxCell id="njuP0xFI8WVh34JiceHF-77" value="刷新订单，结束拆分" style="strokeWidth=2;html=1;shape=mxgraph.flowchart.terminator;whiteSpace=wrap;" vertex="1" parent="WIyWlLk6GJQsqaUBKTNV-1">
          <mxGeometry x="372" y="1100" width="156" height="40" as="geometry" />
        </mxCell>
        <mxCell id="njuP0xFI8WVh34JiceHF-90" value="" style="edgeStyle=orthogonalEdgeStyle;rounded=0;orthogonalLoop=1;jettySize=auto;html=1;fontSize=16;fontColor=#EA6B66;" edge="1" parent="WIyWlLk6GJQsqaUBKTNV-1" source="njuP0xFI8WVh34JiceHF-82" target="njuP0xFI8WVh34JiceHF-83">
          <mxGeometry relative="1" as="geometry" />
        </mxCell>
        <mxCell id="njuP0xFI8WVh34JiceHF-82" value="重量上限 W&lt;br&gt;每组重量W2 = W&lt;br&gt;理论最佳数量 bigNum" style="shape=parallelogram;html=1;strokeWidth=2;perimeter=parallelogramPerimeter;whiteSpace=wrap;rounded=1;arcSize=12;size=0.23;" vertex="1" parent="WIyWlLk6GJQsqaUBKTNV-1">
          <mxGeometry x="122.51" y="1169" width="190" height="51" as="geometry" />
        </mxCell>
        <mxCell id="njuP0xFI8WVh34JiceHF-89" value="" style="edgeStyle=orthogonalEdgeStyle;rounded=0;orthogonalLoop=1;jettySize=auto;html=1;fontSize=16;fontColor=#EA6B66;" edge="1" parent="WIyWlLk6GJQsqaUBKTNV-1" source="njuP0xFI8WVh34JiceHF-83" target="njuP0xFI8WVh34JiceHF-84">
          <mxGeometry relative="1" as="geometry" />
        </mxCell>
        <mxCell id="njuP0xFI8WVh34JiceHF-93" value="查不到" style="edgeStyle=orthogonalEdgeStyle;rounded=0;orthogonalLoop=1;jettySize=auto;html=1;fontSize=12;fontColor=#000000;" edge="1" parent="WIyWlLk6GJQsqaUBKTNV-1" source="njuP0xFI8WVh34JiceHF-83" target="njuP0xFI8WVh34JiceHF-86">
          <mxGeometry relative="1" as="geometry" />
        </mxCell>
        <mxCell id="njuP0xFI8WVh34JiceHF-83" value="&lt;span style=&quot;text-align: left&quot;&gt;查找 STO 中 w&amp;nbsp; &amp;lt; W2 中最大的货品均重 weight，数量 num&lt;/span&gt;" style="strokeWidth=2;html=1;shape=mxgraph.flowchart.decision;whiteSpace=wrap;" vertex="1" parent="WIyWlLk6GJQsqaUBKTNV-1">
          <mxGeometry x="118.43" y="1250" width="198.12" height="80" as="geometry" />
        </mxCell>
        <mxCell id="njuP0xFI8WVh34JiceHF-97" value="" style="edgeStyle=orthogonalEdgeStyle;rounded=0;orthogonalLoop=1;jettySize=auto;html=1;fontSize=12;fontColor=#000000;" edge="1" parent="WIyWlLk6GJQsqaUBKTNV-1" source="njuP0xFI8WVh34JiceHF-84" target="njuP0xFI8WVh34JiceHF-96">
          <mxGeometry relative="1" as="geometry" />
        </mxCell>
        <mxCell id="njuP0xFI8WVh34JiceHF-84" value="&lt;span&gt;理论最佳数量：bigNum = W2 / weight&amp;nbsp;&lt;/span&gt;&lt;br&gt;&lt;div&gt;如果 bigNum &amp;gt; num&amp;nbsp; bigNum = num&lt;/div&gt;&lt;div&gt;减去已选择的重量 W2 = W2 - bigNum * weight&lt;/div&gt;&lt;div style=&quot;&quot;&gt;减去已选择的数量 num - bigNum&lt;/div&gt;" style="rounded=1;whiteSpace=wrap;html=1;absoluteArcSize=1;arcSize=14;strokeWidth=2;align=center;verticalAlign=top;" vertex="1" parent="WIyWlLk6GJQsqaUBKTNV-1">
          <mxGeometry x="70" y="1390" width="293.75" height="70" as="geometry" />
        </mxCell>
        <mxCell id="njuP0xFI8WVh34JiceHF-95" value="" style="edgeStyle=orthogonalEdgeStyle;rounded=0;orthogonalLoop=1;jettySize=auto;html=1;fontSize=12;fontColor=#000000;" edge="1" parent="WIyWlLk6GJQsqaUBKTNV-1" source="njuP0xFI8WVh34JiceHF-86" target="njuP0xFI8WVh34JiceHF-94">
          <mxGeometry relative="1" as="geometry" />
        </mxCell>
        <mxCell id="njuP0xFI8WVh34JiceHF-86" value="如果存在未拆分订单，且大于重量下限，进行拆分" style="rounded=1;whiteSpace=wrap;html=1;absoluteArcSize=1;arcSize=14;strokeWidth=2;align=center;verticalAlign=top;" vertex="1" parent="WIyWlLk6GJQsqaUBKTNV-1">
          <mxGeometry x="413.13" y="1266.25" width="176.87" height="47.5" as="geometry" />
        </mxCell>
        <mxCell id="njuP0xFI8WVh34JiceHF-88" value="循环操作" style="text;html=1;strokeColor=none;fillColor=#dae8fc;align=center;verticalAlign=middle;whiteSpace=wrap;rounded=0;fontStyle=1;fontSize=16;labelBorderColor=none;fontColor=#EA6B66;" vertex="1" parent="WIyWlLk6GJQsqaUBKTNV-1">
          <mxGeometry x="624" y="1230" width="150" height="40" as="geometry" />
        </mxCell>
        <mxCell id="njuP0xFI8WVh34JiceHF-94" value="该订单拆分结束，跳出循环" style="rounded=1;whiteSpace=wrap;html=1;absoluteArcSize=1;arcSize=14;strokeWidth=2;align=center;verticalAlign=top;" vertex="1" parent="WIyWlLk6GJQsqaUBKTNV-1">
          <mxGeometry x="397.35" y="1350" width="208.44" height="27.5" as="geometry" />
        </mxCell>
        <mxCell id="njuP0xFI8WVh34JiceHF-99" value="否" style="edgeStyle=orthogonalEdgeStyle;rounded=0;orthogonalLoop=1;jettySize=auto;html=1;fontSize=12;fontColor=#000000;" edge="1" parent="WIyWlLk6GJQsqaUBKTNV-1" source="njuP0xFI8WVh34JiceHF-96" target="njuP0xFI8WVh34JiceHF-98">
          <mxGeometry relative="1" as="geometry" />
        </mxCell>
        <mxCell id="njuP0xFI8WVh34JiceHF-102" value="" style="edgeStyle=orthogonalEdgeStyle;rounded=0;orthogonalLoop=1;jettySize=auto;html=1;fontSize=12;fontColor=#000000;" edge="1" parent="WIyWlLk6GJQsqaUBKTNV-1" source="njuP0xFI8WVh34JiceHF-96" target="njuP0xFI8WVh34JiceHF-100">
          <mxGeometry relative="1" as="geometry" />
        </mxCell>
        <mxCell id="njuP0xFI8WVh34JiceHF-96" value="&lt;span style=&quot;text-align: left&quot;&gt;W2 = 0?&lt;/span&gt;" style="strokeWidth=2;html=1;shape=mxgraph.flowchart.decision;whiteSpace=wrap;" vertex="1" parent="WIyWlLk6GJQsqaUBKTNV-1">
          <mxGeometry x="124.85" y="1490" width="184.06" height="60" as="geometry" />
        </mxCell>
        <mxCell id="njuP0xFI8WVh34JiceHF-98" value="继续循环下一个货品" style="rounded=1;whiteSpace=wrap;html=1;absoluteArcSize=1;arcSize=14;strokeWidth=2;align=center;verticalAlign=top;" vertex="1" parent="WIyWlLk6GJQsqaUBKTNV-1">
          <mxGeometry x="400" y="1503.13" width="140" height="33.75" as="geometry" />
        </mxCell>
        <mxCell id="njuP0xFI8WVh34JiceHF-104" value="否&lt;br&gt;" style="edgeStyle=orthogonalEdgeStyle;rounded=0;orthogonalLoop=1;jettySize=auto;html=1;fontSize=12;fontColor=#000000;" edge="1" parent="WIyWlLk6GJQsqaUBKTNV-1" source="njuP0xFI8WVh34JiceHF-100" target="njuP0xFI8WVh34JiceHF-103">
          <mxGeometry relative="1" as="geometry" />
        </mxCell>
        <mxCell id="njuP0xFI8WVh34JiceHF-105" value="是" style="edgeStyle=orthogonalEdgeStyle;rounded=0;orthogonalLoop=1;jettySize=auto;html=1;fontSize=12;fontColor=#000000;" edge="1" parent="WIyWlLk6GJQsqaUBKTNV-1" source="njuP0xFI8WVh34JiceHF-100" target="njuP0xFI8WVh34JiceHF-101">
          <mxGeometry relative="1" as="geometry" />
        </mxCell>
        <mxCell id="njuP0xFI8WVh34JiceHF-100" value="剩余重量&amp;nbsp; &amp;lt; 重量下限？" style="strokeWidth=2;html=1;shape=mxgraph.flowchart.decision;whiteSpace=wrap;" vertex="1" parent="WIyWlLk6GJQsqaUBKTNV-1">
          <mxGeometry x="125.47999999999999" y="1580" width="184.06" height="60" as="geometry" />
        </mxCell>
        <mxCell id="njuP0xFI8WVh34JiceHF-101" value="该订单不进行拆分，开始下一个订单" style="rounded=1;whiteSpace=wrap;html=1;absoluteArcSize=1;arcSize=14;strokeWidth=2;align=center;verticalAlign=top;" vertex="1" parent="WIyWlLk6GJQsqaUBKTNV-1">
          <mxGeometry x="410" y="1586.56" width="140" height="46.88" as="geometry" />
        </mxCell>
        <mxCell id="njuP0xFI8WVh34JiceHF-103" value="该订单拆分结束，开始拆分下一个订单" style="rounded=1;whiteSpace=wrap;html=1;absoluteArcSize=1;arcSize=14;strokeWidth=2;align=center;verticalAlign=top;" vertex="1" parent="WIyWlLk6GJQsqaUBKTNV-1">
          <mxGeometry x="141.88" y="1690" width="150" height="50" as="geometry" />
        </mxCell>
      </root>
    </mxGraphModel>
  </diagram>
</mxfile>
